<svg width="16" height="16" viewBox="0 0 16 16" fill="none" xmlns="http://www.w3.org/2000/svg">
<path d="M1.31687 16H5.26749C5.99588 16 6.58436 15.285 6.58436 14.4C6.58436 13.515 5.99588 12.8 5.26749 12.8H1.31687C0.588478 12.8 0 13.515 0 14.4C0 15.285 0.588478 16 1.31687 16ZM1.31687 9.6H10.0741C10.8025 9.6 11.3909 8.885 11.3909 8C11.3909 7.115 10.8025 6.4 10.0741 6.4H1.31687C0.588478 6.4 0 7.115 0 8C0 8.885 0.588478 9.6 1.31687 9.6ZM1.31687 3.2H14.6831C15.4115 3.2 16 2.485 16 1.6C16 0.715 15.4115 0 14.6831 0H1.31687C0.588478 0 0 0.715 0 1.6C0 2.485 0.588478 3.2 1.31687 3.2Z" fill="#6C6C6C"/>
</svg>
